<mxfile host="app.diagrams.net" modified="2021-06-27T05:52:19.083Z" agent="5.0 (Macintosh; Intel Mac OS X 10_15_7) AppleWebKit/537.36 (KHTML, like Gecko) Chrome/91.0.4472.114 Safari/537.36" etag="oi44d1WTQv6wCbReR_0k" version="14.5.3" type="github">
  <diagram id="OuW8DUqOfbiBt_Pd2nJq" name="第 1 页">
    <mxGraphModel dx="1426" dy="684" grid="1" gridSize="10" guides="1" tooltips="1" connect="1" arrows="1" fold="1" page="1" pageScale="1" pageWidth="827" pageHeight="1169" math="0" shadow="0">
      <root>
        <mxCell id="0" />
        <mxCell id="1" parent="0" />
        <mxCell id="V1rvYBWvrynJF3RTsBWk-3" style="edgeStyle=orthogonalEdgeStyle;rounded=0;orthogonalLoop=1;jettySize=auto;html=1;exitX=1;exitY=0.5;exitDx=0;exitDy=0;" edge="1" parent="1" source="V1rvYBWvrynJF3RTsBWk-1" target="V1rvYBWvrynJF3RTsBWk-2">
          <mxGeometry relative="1" as="geometry" />
        </mxCell>
        <mxCell id="V1rvYBWvrynJF3RTsBWk-1" value="动画编辑器增加贝塞尔控制板面板和画布" style="rounded=0;whiteSpace=wrap;html=1;" vertex="1" parent="1">
          <mxGeometry x="150" y="150" width="130" height="40" as="geometry" />
        </mxCell>
        <mxCell id="V1rvYBWvrynJF3RTsBWk-5" style="edgeStyle=orthogonalEdgeStyle;rounded=0;orthogonalLoop=1;jettySize=auto;html=1;exitX=1;exitY=0.5;exitDx=0;exitDy=0;entryX=0;entryY=0.5;entryDx=0;entryDy=0;" edge="1" parent="1" source="V1rvYBWvrynJF3RTsBWk-2" target="V1rvYBWvrynJF3RTsBWk-4">
          <mxGeometry relative="1" as="geometry" />
        </mxCell>
        <mxCell id="V1rvYBWvrynJF3RTsBWk-2" value="控制面板定义贝塞尔曲线的起止点和两个控制点" style="rounded=0;whiteSpace=wrap;html=1;" vertex="1" parent="1">
          <mxGeometry x="349" y="150" width="151" height="40" as="geometry" />
        </mxCell>
        <mxCell id="V1rvYBWvrynJF3RTsBWk-7" style="edgeStyle=orthogonalEdgeStyle;rounded=0;orthogonalLoop=1;jettySize=auto;html=1;exitX=0.5;exitY=1;exitDx=0;exitDy=0;entryX=0.5;entryY=0;entryDx=0;entryDy=0;" edge="1" parent="1" source="V1rvYBWvrynJF3RTsBWk-4" target="V1rvYBWvrynJF3RTsBWk-6">
          <mxGeometry relative="1" as="geometry" />
        </mxCell>
        <mxCell id="V1rvYBWvrynJF3RTsBWk-4" value="调整贝塞尔控制点观察画布实时演算出来的曲线" style="rounded=0;whiteSpace=wrap;html=1;" vertex="1" parent="1">
          <mxGeometry x="560" y="150" width="151" height="40" as="geometry" />
        </mxCell>
        <mxCell id="V1rvYBWvrynJF3RTsBWk-9" style="edgeStyle=orthogonalEdgeStyle;rounded=0;orthogonalLoop=1;jettySize=auto;html=1;exitX=0;exitY=0.5;exitDx=0;exitDy=0;entryX=1;entryY=0.5;entryDx=0;entryDy=0;" edge="1" parent="1" source="V1rvYBWvrynJF3RTsBWk-6" target="V1rvYBWvrynJF3RTsBWk-8">
          <mxGeometry relative="1" as="geometry" />
        </mxCell>
        <mxCell id="V1rvYBWvrynJF3RTsBWk-6" value="根据需要定义一到多个贝塞尔轨迹曲线，每一个贝塞尔曲线的起点均是上一个贝塞尔曲线的终点" style="rounded=0;whiteSpace=wrap;html=1;" vertex="1" parent="1">
          <mxGeometry x="550.5" y="250" width="170" height="50" as="geometry" />
        </mxCell>
        <mxCell id="V1rvYBWvrynJF3RTsBWk-11" style="edgeStyle=orthogonalEdgeStyle;rounded=0;orthogonalLoop=1;jettySize=auto;html=1;exitX=0;exitY=0.5;exitDx=0;exitDy=0;entryX=1;entryY=0.5;entryDx=0;entryDy=0;" edge="1" parent="1" source="V1rvYBWvrynJF3RTsBWk-8" target="V1rvYBWvrynJF3RTsBWk-10">
          <mxGeometry relative="1" as="geometry" />
        </mxCell>
        <mxCell id="V1rvYBWvrynJF3RTsBWk-8" value="每段贝塞尔轨迹曲线再分别用一到多个对应的贝塞尔曲线来描述速度的变化" style="rounded=0;whiteSpace=wrap;html=1;" vertex="1" parent="1">
          <mxGeometry x="349" y="255" width="151" height="40" as="geometry" />
        </mxCell>
        <mxCell id="V1rvYBWvrynJF3RTsBWk-13" style="edgeStyle=orthogonalEdgeStyle;rounded=0;orthogonalLoop=1;jettySize=auto;html=1;exitX=0.5;exitY=1;exitDx=0;exitDy=0;entryX=0.5;entryY=0;entryDx=0;entryDy=0;" edge="1" parent="1" source="V1rvYBWvrynJF3RTsBWk-10" target="V1rvYBWvrynJF3RTsBWk-12">
          <mxGeometry relative="1" as="geometry" />
        </mxCell>
        <mxCell id="V1rvYBWvrynJF3RTsBWk-10" value="导出动画轨迹描述文件" style="rounded=0;whiteSpace=wrap;html=1;" vertex="1" parent="1">
          <mxGeometry x="150" y="255" width="151" height="40" as="geometry" />
        </mxCell>
        <mxCell id="V1rvYBWvrynJF3RTsBWk-12" value="动画引擎读取解析动画轨迹文件，根据文件渲染轨迹动画" style="rounded=0;whiteSpace=wrap;html=1;" vertex="1" parent="1">
          <mxGeometry x="145.5" y="350" width="160" height="40" as="geometry" />
        </mxCell>
      </root>
    </mxGraphModel>
  </diagram>
</mxfile>
